<mxfile host="Electron" agent="Mozilla/5.0 (Windows NT 10.0; Win64; x64) AppleWebKit/537.36 (KHTML, like Gecko) draw.io/27.0.9 Chrome/134.0.6998.205 Electron/35.4.0 Safari/537.36" version="27.0.9">
  <diagram name="Страница — 1" id="oOWQUUowt6y8FVHoPB5G">
    <mxGraphModel dx="1082" dy="1292" grid="1" gridSize="10" guides="1" tooltips="1" connect="1" arrows="1" fold="1" page="1" pageScale="1" pageWidth="827" pageHeight="1169" math="0" shadow="0">
      <root>
        <mxCell id="0" />
        <mxCell id="1" parent="0" />
        <mxCell id="wLbmScqUiF-8OM0hG8cs-2" value="Database" style="swimlane;fontStyle=1;align=center;verticalAlign=top;childLayout=stackLayout;horizontal=1;startSize=26;horizontalStack=0;resizeParent=1;resizeParentMax=0;resizeLast=0;collapsible=1;marginBottom=0;whiteSpace=wrap;html=1;" vertex="1" parent="1">
          <mxGeometry x="360" y="240" width="120" height="90" as="geometry" />
        </mxCell>
        <mxCell id="wLbmScqUiF-8OM0hG8cs-4" value="" style="line;strokeWidth=1;fillColor=none;align=left;verticalAlign=middle;spacingTop=-1;spacingLeft=3;spacingRight=3;rotatable=0;labelPosition=right;points=[];portConstraint=eastwest;strokeColor=inherit;" vertex="1" parent="wLbmScqUiF-8OM0hG8cs-2">
          <mxGeometry y="26" width="120" height="8" as="geometry" />
        </mxCell>
        <mxCell id="wLbmScqUiF-8OM0hG8cs-5" value="+ Connect()&lt;div&gt;+ ExecuteQuery()&lt;/div&gt;&lt;div&gt;+ FetchResults()&lt;/div&gt;" style="text;strokeColor=none;fillColor=none;align=left;verticalAlign=top;spacingLeft=4;spacingRight=4;overflow=hidden;rotatable=0;points=[[0,0.5],[1,0.5]];portConstraint=eastwest;whiteSpace=wrap;html=1;" vertex="1" parent="wLbmScqUiF-8OM0hG8cs-2">
          <mxGeometry y="34" width="120" height="56" as="geometry" />
        </mxCell>
        <mxCell id="wLbmScqUiF-8OM0hG8cs-6" value="User" style="swimlane;fontStyle=1;align=center;verticalAlign=top;childLayout=stackLayout;horizontal=1;startSize=26;horizontalStack=0;resizeParent=1;resizeParentMax=0;resizeLast=0;collapsible=1;marginBottom=0;whiteSpace=wrap;html=1;" vertex="1" parent="1">
          <mxGeometry x="360" y="440" width="120" height="126" as="geometry" />
        </mxCell>
        <mxCell id="wLbmScqUiF-8OM0hG8cs-7" value="- UserId: int&lt;div&gt;- UserName: string&lt;/div&gt;" style="text;strokeColor=none;fillColor=none;align=left;verticalAlign=top;spacingLeft=4;spacingRight=4;overflow=hidden;rotatable=0;points=[[0,0.5],[1,0.5]];portConstraint=eastwest;whiteSpace=wrap;html=1;" vertex="1" parent="wLbmScqUiF-8OM0hG8cs-6">
          <mxGeometry y="26" width="120" height="34" as="geometry" />
        </mxCell>
        <mxCell id="wLbmScqUiF-8OM0hG8cs-8" value="" style="line;strokeWidth=1;fillColor=none;align=left;verticalAlign=middle;spacingTop=-1;spacingLeft=3;spacingRight=3;rotatable=0;labelPosition=right;points=[];portConstraint=eastwest;strokeColor=inherit;" vertex="1" parent="wLbmScqUiF-8OM0hG8cs-6">
          <mxGeometry y="60" width="120" height="10" as="geometry" />
        </mxCell>
        <mxCell id="wLbmScqUiF-8OM0hG8cs-11" value="+ Add()&lt;br&gt;&lt;div&gt;+ Delete()&lt;/div&gt;&lt;div&gt;+ Edit()&lt;/div&gt;" style="text;strokeColor=none;fillColor=none;align=left;verticalAlign=top;spacingLeft=4;spacingRight=4;overflow=hidden;rotatable=0;points=[[0,0.5],[1,0.5]];portConstraint=eastwest;whiteSpace=wrap;html=1;" vertex="1" parent="wLbmScqUiF-8OM0hG8cs-6">
          <mxGeometry y="70" width="120" height="56" as="geometry" />
        </mxCell>
        <mxCell id="wLbmScqUiF-8OM0hG8cs-12" value="Hotels" style="swimlane;fontStyle=1;align=center;verticalAlign=top;childLayout=stackLayout;horizontal=1;startSize=26;horizontalStack=0;resizeParent=1;resizeParentMax=0;resizeLast=0;collapsible=1;marginBottom=0;whiteSpace=wrap;html=1;" vertex="1" parent="1">
          <mxGeometry x="520" y="400" width="160" height="246" as="geometry" />
        </mxCell>
        <mxCell id="wLbmScqUiF-8OM0hG8cs-13" value="- HotelId: int&lt;div&gt;- HostelName: string&lt;/div&gt;&lt;div&gt;- Price: int&lt;/div&gt;&lt;div&gt;- Description: string&lt;/div&gt;&lt;div&gt;- Date: string&lt;/div&gt;&lt;div&gt;- Rating: string&lt;/div&gt;&lt;div&gt;- Services: string&lt;/div&gt;&lt;div&gt;- City: string&lt;/div&gt;&lt;div&gt;- Country: string&lt;/div&gt;&lt;div&gt;- Currency: string&lt;/div&gt;" style="text;strokeColor=none;fillColor=none;align=left;verticalAlign=top;spacingLeft=4;spacingRight=4;overflow=hidden;rotatable=0;points=[[0,0.5],[1,0.5]];portConstraint=eastwest;whiteSpace=wrap;html=1;" vertex="1" parent="wLbmScqUiF-8OM0hG8cs-12">
          <mxGeometry y="26" width="160" height="154" as="geometry" />
        </mxCell>
        <mxCell id="wLbmScqUiF-8OM0hG8cs-14" value="" style="line;strokeWidth=1;fillColor=none;align=left;verticalAlign=middle;spacingTop=-1;spacingLeft=3;spacingRight=3;rotatable=0;labelPosition=right;points=[];portConstraint=eastwest;strokeColor=inherit;" vertex="1" parent="wLbmScqUiF-8OM0hG8cs-12">
          <mxGeometry y="180" width="160" height="10" as="geometry" />
        </mxCell>
        <mxCell id="wLbmScqUiF-8OM0hG8cs-15" value="+ Add()&lt;br&gt;&lt;div&gt;+ Delete()&lt;/div&gt;&lt;div&gt;+ FollowingTheLink&lt;/div&gt;" style="text;strokeColor=none;fillColor=none;align=left;verticalAlign=top;spacingLeft=4;spacingRight=4;overflow=hidden;rotatable=0;points=[[0,0.5],[1,0.5]];portConstraint=eastwest;whiteSpace=wrap;html=1;" vertex="1" parent="wLbmScqUiF-8OM0hG8cs-12">
          <mxGeometry y="190" width="160" height="56" as="geometry" />
        </mxCell>
        <mxCell id="wLbmScqUiF-8OM0hG8cs-16" value="Flights" style="swimlane;fontStyle=1;align=center;verticalAlign=top;childLayout=stackLayout;horizontal=1;startSize=26;horizontalStack=0;resizeParent=1;resizeParentMax=0;resizeLast=0;collapsible=1;marginBottom=0;whiteSpace=wrap;html=1;" vertex="1" parent="1">
          <mxGeometry x="160" y="400" width="160" height="280" as="geometry" />
        </mxCell>
        <mxCell id="wLbmScqUiF-8OM0hG8cs-17" value="- FlightsId: int&lt;div&gt;- FlightsName: string&lt;/div&gt;&lt;div&gt;- Photo: image&lt;/div&gt;&lt;div&gt;- Price: int&lt;/div&gt;&lt;div&gt;- Description: string&lt;/div&gt;&lt;div&gt;- Date: string&lt;/div&gt;&lt;div&gt;- Airline: string&lt;/div&gt;&lt;div&gt;- URL: string&lt;/div&gt;&lt;div&gt;- Airport: string&lt;/div&gt;&lt;div&gt;- Class: string&lt;/div&gt;&lt;div&gt;- DepartureCity: string&lt;/div&gt;&lt;div&gt;- ArrivalCity: string&lt;/div&gt;&lt;div&gt;- Currency: string&lt;/div&gt;" style="text;strokeColor=none;fillColor=none;align=left;verticalAlign=top;spacingLeft=4;spacingRight=4;overflow=hidden;rotatable=0;points=[[0,0.5],[1,0.5]];portConstraint=eastwest;whiteSpace=wrap;html=1;" vertex="1" parent="wLbmScqUiF-8OM0hG8cs-16">
          <mxGeometry y="26" width="160" height="194" as="geometry" />
        </mxCell>
        <mxCell id="wLbmScqUiF-8OM0hG8cs-18" value="" style="line;strokeWidth=1;fillColor=none;align=left;verticalAlign=middle;spacingTop=-1;spacingLeft=3;spacingRight=3;rotatable=0;labelPosition=right;points=[];portConstraint=eastwest;strokeColor=inherit;" vertex="1" parent="wLbmScqUiF-8OM0hG8cs-16">
          <mxGeometry y="220" width="160" height="8" as="geometry" />
        </mxCell>
        <mxCell id="wLbmScqUiF-8OM0hG8cs-19" value="+ Add()&lt;div&gt;+ Delete()&lt;/div&gt;&lt;div&gt;+ FollowingTheLink()&lt;/div&gt;" style="text;strokeColor=none;fillColor=none;align=left;verticalAlign=top;spacingLeft=4;spacingRight=4;overflow=hidden;rotatable=0;points=[[0,0.5],[1,0.5]];portConstraint=eastwest;whiteSpace=wrap;html=1;" vertex="1" parent="wLbmScqUiF-8OM0hG8cs-16">
          <mxGeometry y="228" width="160" height="52" as="geometry" />
        </mxCell>
        <mxCell id="wLbmScqUiF-8OM0hG8cs-20" value="FavourTheFlights" style="swimlane;fontStyle=1;align=center;verticalAlign=top;childLayout=stackLayout;horizontal=1;startSize=26;horizontalStack=0;resizeParent=1;resizeParentMax=0;resizeLast=0;collapsible=1;marginBottom=0;whiteSpace=wrap;html=1;" vertex="1" parent="1">
          <mxGeometry x="160" y="760" width="160" height="150" as="geometry" />
        </mxCell>
        <mxCell id="wLbmScqUiF-8OM0hG8cs-21" value="- FavouritesId: int&lt;div&gt;- FavouritesName: string&lt;/div&gt;&lt;div&gt;- Photo: image&lt;/div&gt;&lt;div&gt;- FlightsName: string&lt;/div&gt;" style="text;strokeColor=none;fillColor=none;align=left;verticalAlign=top;spacingLeft=4;spacingRight=4;overflow=hidden;rotatable=0;points=[[0,0.5],[1,0.5]];portConstraint=eastwest;whiteSpace=wrap;html=1;" vertex="1" parent="wLbmScqUiF-8OM0hG8cs-20">
          <mxGeometry y="26" width="160" height="64" as="geometry" />
        </mxCell>
        <mxCell id="wLbmScqUiF-8OM0hG8cs-22" value="" style="line;strokeWidth=1;fillColor=none;align=left;verticalAlign=middle;spacingTop=-1;spacingLeft=3;spacingRight=3;rotatable=0;labelPosition=right;points=[];portConstraint=eastwest;strokeColor=inherit;" vertex="1" parent="wLbmScqUiF-8OM0hG8cs-20">
          <mxGeometry y="90" width="160" height="8" as="geometry" />
        </mxCell>
        <mxCell id="wLbmScqUiF-8OM0hG8cs-23" value="+ Add()&lt;div&gt;+ Delete()&lt;/div&gt;&lt;div&gt;+ FollowingTheLink()&lt;/div&gt;" style="text;strokeColor=none;fillColor=none;align=left;verticalAlign=top;spacingLeft=4;spacingRight=4;overflow=hidden;rotatable=0;points=[[0,0.5],[1,0.5]];portConstraint=eastwest;whiteSpace=wrap;html=1;" vertex="1" parent="wLbmScqUiF-8OM0hG8cs-20">
          <mxGeometry y="98" width="160" height="52" as="geometry" />
        </mxCell>
        <mxCell id="wLbmScqUiF-8OM0hG8cs-24" value="FavourTheHotels" style="swimlane;fontStyle=1;align=center;verticalAlign=top;childLayout=stackLayout;horizontal=1;startSize=26;horizontalStack=0;resizeParent=1;resizeParentMax=0;resizeLast=0;collapsible=1;marginBottom=0;whiteSpace=wrap;html=1;" vertex="1" parent="1">
          <mxGeometry x="520" y="760" width="160" height="150" as="geometry" />
        </mxCell>
        <mxCell id="wLbmScqUiF-8OM0hG8cs-25" value="- FavouritesId: int&lt;div&gt;- FavouritesName: string&lt;/div&gt;&lt;div&gt;- Photo: image&lt;/div&gt;&lt;div&gt;- HotelsName: string&lt;/div&gt;" style="text;strokeColor=none;fillColor=none;align=left;verticalAlign=top;spacingLeft=4;spacingRight=4;overflow=hidden;rotatable=0;points=[[0,0.5],[1,0.5]];portConstraint=eastwest;whiteSpace=wrap;html=1;" vertex="1" parent="wLbmScqUiF-8OM0hG8cs-24">
          <mxGeometry y="26" width="160" height="64" as="geometry" />
        </mxCell>
        <mxCell id="wLbmScqUiF-8OM0hG8cs-26" value="" style="line;strokeWidth=1;fillColor=none;align=left;verticalAlign=middle;spacingTop=-1;spacingLeft=3;spacingRight=3;rotatable=0;labelPosition=right;points=[];portConstraint=eastwest;strokeColor=inherit;" vertex="1" parent="wLbmScqUiF-8OM0hG8cs-24">
          <mxGeometry y="90" width="160" height="8" as="geometry" />
        </mxCell>
        <mxCell id="wLbmScqUiF-8OM0hG8cs-27" value="+ Add()&lt;div&gt;+ Delete()&lt;/div&gt;&lt;div&gt;+ FollowingTheLink()&lt;/div&gt;" style="text;strokeColor=none;fillColor=none;align=left;verticalAlign=top;spacingLeft=4;spacingRight=4;overflow=hidden;rotatable=0;points=[[0,0.5],[1,0.5]];portConstraint=eastwest;whiteSpace=wrap;html=1;" vertex="1" parent="wLbmScqUiF-8OM0hG8cs-24">
          <mxGeometry y="98" width="160" height="52" as="geometry" />
        </mxCell>
        <mxCell id="wLbmScqUiF-8OM0hG8cs-28" value="" style="endArrow=classic;html=1;rounded=0;exitX=0.5;exitY=1;exitDx=0;exitDy=0;entryX=0.5;entryY=0;entryDx=0;entryDy=0;" edge="1" parent="1" source="wLbmScqUiF-8OM0hG8cs-2" target="wLbmScqUiF-8OM0hG8cs-6">
          <mxGeometry width="50" height="50" relative="1" as="geometry">
            <mxPoint x="480" y="380" as="sourcePoint" />
            <mxPoint x="420" y="370" as="targetPoint" />
          </mxGeometry>
        </mxCell>
        <mxCell id="wLbmScqUiF-8OM0hG8cs-29" value="" style="endArrow=classic;html=1;rounded=0;exitX=0;exitY=0.5;exitDx=0;exitDy=0;entryX=0;entryY=0.5;entryDx=0;entryDy=0;" edge="1" parent="1" source="wLbmScqUiF-8OM0hG8cs-5" target="wLbmScqUiF-8OM0hG8cs-17">
          <mxGeometry width="50" height="50" relative="1" as="geometry">
            <mxPoint x="230" y="320" as="sourcePoint" />
            <mxPoint x="40" y="300" as="targetPoint" />
            <Array as="points">
              <mxPoint x="120" y="302" />
              <mxPoint x="120" y="523" />
            </Array>
          </mxGeometry>
        </mxCell>
        <mxCell id="wLbmScqUiF-8OM0hG8cs-30" value="" style="endArrow=classic;html=1;rounded=0;entryX=0;entryY=0.5;entryDx=0;entryDy=0;" edge="1" parent="1" target="wLbmScqUiF-8OM0hG8cs-21">
          <mxGeometry width="50" height="50" relative="1" as="geometry">
            <mxPoint x="120" y="520" as="sourcePoint" />
            <mxPoint x="60" y="630" as="targetPoint" />
            <Array as="points">
              <mxPoint x="120" y="820" />
            </Array>
          </mxGeometry>
        </mxCell>
        <mxCell id="wLbmScqUiF-8OM0hG8cs-31" value="" style="endArrow=classic;html=1;rounded=0;exitX=1;exitY=0.5;exitDx=0;exitDy=0;entryX=1;entryY=0.5;entryDx=0;entryDy=0;" edge="1" parent="1" source="wLbmScqUiF-8OM0hG8cs-5" target="wLbmScqUiF-8OM0hG8cs-13">
          <mxGeometry width="50" height="50" relative="1" as="geometry">
            <mxPoint x="580" y="270" as="sourcePoint" />
            <mxPoint x="630" y="220" as="targetPoint" />
            <Array as="points">
              <mxPoint x="720" y="302" />
              <mxPoint x="720" y="503" />
            </Array>
          </mxGeometry>
        </mxCell>
        <mxCell id="wLbmScqUiF-8OM0hG8cs-32" value="" style="endArrow=classic;html=1;rounded=0;entryX=1;entryY=0.5;entryDx=0;entryDy=0;" edge="1" parent="1" target="wLbmScqUiF-8OM0hG8cs-25">
          <mxGeometry width="50" height="50" relative="1" as="geometry">
            <mxPoint x="720" y="500" as="sourcePoint" />
            <mxPoint x="830" y="660" as="targetPoint" />
            <Array as="points">
              <mxPoint x="720" y="818" />
            </Array>
          </mxGeometry>
        </mxCell>
        <mxCell id="wLbmScqUiF-8OM0hG8cs-33" value="" style="endArrow=open;dashed=1;html=1;rounded=0;exitX=0.5;exitY=0;exitDx=0;exitDy=0;entryX=0.5;entryY=1;entryDx=0;entryDy=0;endFill=0;" edge="1" parent="1" source="wLbmScqUiF-8OM0hG8cs-20" target="wLbmScqUiF-8OM0hG8cs-16">
          <mxGeometry width="50" height="50" relative="1" as="geometry">
            <mxPoint x="260" y="760" as="sourcePoint" />
            <mxPoint x="310" y="710" as="targetPoint" />
          </mxGeometry>
        </mxCell>
        <mxCell id="wLbmScqUiF-8OM0hG8cs-34" value="" style="endArrow=open;dashed=1;html=1;rounded=0;exitX=0.5;exitY=0;exitDx=0;exitDy=0;entryX=0.5;entryY=1;entryDx=0;entryDy=0;endFill=0;" edge="1" parent="1" source="wLbmScqUiF-8OM0hG8cs-24" target="wLbmScqUiF-8OM0hG8cs-12">
          <mxGeometry width="50" height="50" relative="1" as="geometry">
            <mxPoint x="500" y="750" as="sourcePoint" />
            <mxPoint x="550" y="700" as="targetPoint" />
          </mxGeometry>
        </mxCell>
      </root>
    </mxGraphModel>
  </diagram>
</mxfile>
